<svg id="router" xmlns="http://www.w3.org/2000/svg" viewBox="0 0 1920 1080"><defs><style>.cls-1{fill:#2b2b2b;}.cls-2{fill:#5e5e5e;}.cls-10,.cls-11,.cls-12,.cls-3,.cls-5,.cls-6,.cls-7,.cls-8,.cls-9{fill:none;stroke-width:10px;}.cls-3{stroke:#999;}.cls-12,.cls-3{stroke-linecap:round;stroke-linejoin:round;}.cls-4{opacity:0.3;}.cls-10,.cls-11,.cls-12,.cls-5,.cls-6,.cls-7,.cls-8,.cls-9{stroke:#000;}.cls-10,.cls-11,.cls-5,.cls-6,.cls-7,.cls-8,.cls-9{stroke-miterlimit:10;}.cls-6{stroke-dasharray:33.07 33.07;}.cls-7{stroke-dasharray:30.2 30.2;}.cls-8{stroke-dasharray:33.41 33.41;}.cls-9{stroke-dasharray:33.15 33.15;}.cls-10{stroke-dasharray:32.84 32.84;}.cls-11{stroke-dasharray:23.48 23.48;}</style></defs><g id="Contornos"><path class="cls-1" d="M326.72,883.81l10.36-28H342l-13.1,34h-4.66l-12.82-34h5Z"/><path class="cls-1" d="M358.73,881.93l3.89,1.35a10.3,10.3,0,0,1-3.74,5.26,10.84,10.84,0,0,1-6.63,2,11.3,11.3,0,0,1-8.23-3.33,13.51,13.51,0,0,1-.12-17.74,11.12,11.12,0,0,1,15.94-.17,12.79,12.79,0,0,1,2.93,8.81,9.34,9.34,0,0,1-.1,1.44H345.29a7,7,0,0,0,2,5,6.7,6.7,0,0,0,4.92,2A6.23,6.23,0,0,0,358.73,881.93Zm-13.29-6h12.62a5.83,5.83,0,0,0-6.33-5.9,6,6,0,0,0-4.42,1.75A6.26,6.26,0,0,0,345.44,875.93Z"/><path class="cls-1" d="M380.14,866.53v4.8a13.37,13.37,0,0,0-2-.15q-6.33,0-6.33,7.11v11.56h-4.52V866.77h4.42v4a7.16,7.16,0,0,1,6.91-4.42A7.31,7.31,0,0,1,380.14,866.53Z"/><path class="cls-1" d="M390.22,899.5h-4.94L391,887.31l-9.94-20.54h5.19l7.19,15.93,6.92-15.93h4.84Z"/><path class="cls-1" d="M423.63,889.85h-4.47V855.1h4.47V870a7.22,7.22,0,0,1,2.9-2.81,10.6,10.6,0,0,1,12.55,2.28A14.92,14.92,0,0,1,439,887a9.68,9.68,0,0,1-7.87,3.48q-5.19,0-7.49-4Zm11.76-5.66a9.07,9.07,0,0,0,1.87-6,8.9,8.9,0,0,0-1.85-5.93,6.69,6.69,0,0,0-9.91,0,8.67,8.67,0,0,0-1.92,5.9,9,9,0,0,0,1.92,6,6.17,6.17,0,0,0,4.94,2.28A6.1,6.1,0,0,0,435.39,884.19Z"/><path class="cls-1" d="M445,883.66a6.23,6.23,0,0,1,1.92-4.77,9,9,0,0,1,5.09-2.24l6.24-.91c1.18-.16,1.77-.73,1.77-1.73a3.84,3.84,0,0,0-1.25-3,5.33,5.33,0,0,0-3.74-1.15,5.09,5.09,0,0,0-3.65,1.27,5.28,5.28,0,0,0-1.58,3.38l-4.32-1a7.58,7.58,0,0,1,3-5.41,10.18,10.18,0,0,1,6.43-2.08c3.27,0,5.68.79,7.25,2.37a8.27,8.27,0,0,1,2.35,6.07v11.57a23.26,23.26,0,0,0,.29,3.79H460.4a17.89,17.89,0,0,1-.24-3.12,8.42,8.42,0,0,1-7.45,3.84,7.8,7.8,0,0,1-5.56-2A6.5,6.5,0,0,1,445,883.66Zm8.35,3.12a7,7,0,0,0,4.85-1.63Q460,883.51,460,880v-1.06L453,880a4.42,4.42,0,0,0-2.45,1.1,3.08,3.08,0,0,0-.91,2.35,3.16,3.16,0,0,0,1,2.35A3.67,3.67,0,0,0,453.34,886.78Z"/><path class="cls-1" d="M468.17,883.85l4.08-1.44a4.85,4.85,0,0,0,1.63,3.1,5.46,5.46,0,0,0,3.75,1.22,4.37,4.37,0,0,0,2.88-.88,2.77,2.77,0,0,0,1.05-2.19c0-1.53-1-2.53-3-3l-3.94-.87a7.55,7.55,0,0,1-4.22-2.3,6.05,6.05,0,0,1-1.54-4.18,6.65,6.65,0,0,1,2.43-5.13,8.38,8.38,0,0,1,5.78-2.16,11.27,11.27,0,0,1,3.94.64,6.89,6.89,0,0,1,2.68,1.71,9.65,9.65,0,0,1,1.44,2,8.21,8.21,0,0,1,.72,1.87l-4,1.49a5.07,5.07,0,0,0-.34-1.13,5.76,5.76,0,0,0-.74-1.22,3.55,3.55,0,0,0-1.46-1.09,5.85,5.85,0,0,0-2.26-.4,4.12,4.12,0,0,0-2.76.91,2.75,2.75,0,0,0-1.08,2.16c0,1.47.88,2.4,2.64,2.78l3.74.82a8.76,8.76,0,0,1,4.73,2.47,6.26,6.26,0,0,1,1.66,4.39,6.82,6.82,0,0,1-2.24,5,8.44,8.44,0,0,1-6.21,2.2,9.7,9.7,0,0,1-6.67-2.13A7.55,7.55,0,0,1,468.17,883.85Z"/><path class="cls-1" d="M490.76,860.31a3.07,3.07,0,0,1-.94-2.28,3.15,3.15,0,0,1,.94-2.3,3.05,3.05,0,0,1,2.28-1,3.19,3.19,0,0,1,2.3.93,3.13,3.13,0,0,1,1,2.33,3.05,3.05,0,0,1-1,2.28,3.2,3.2,0,0,1-2.3.94A3.11,3.11,0,0,1,490.76,860.31Zm4.53,29.54h-4.46V866.77h4.46Z"/><path class="cls-1" d="M511.47,870.22a6.67,6.67,0,0,0-5,2.11,8.24,8.24,0,0,0-2,6,8.33,8.33,0,0,0,2,6,6.62,6.62,0,0,0,5,2.16,6.15,6.15,0,0,0,4.4-1.44,7.41,7.41,0,0,0,2-3.31l4,1.73a11,11,0,0,1-3.62,5,10.45,10.45,0,0,1-6.8,2.16,11,11,0,0,1-8.35-3.5,12.32,12.32,0,0,1-3.31-8.78,12.19,12.19,0,0,1,3.31-8.81,11.06,11.06,0,0,1,8.31-3.43,10.42,10.42,0,0,1,6.84,2.16,10.09,10.09,0,0,1,3.43,5.18l-4.08,1.73a7.28,7.28,0,0,0-2-3.46A5.74,5.74,0,0,0,511.47,870.22Z"/><path class="cls-1" d="M564.07,889.85h-4.7V874.73H542v15.12h-4.7v-34H542v14.55h17.38V855.82h4.7Z"/><path class="cls-1" d="M595.13,860.19H583.75v29.66h-4.7V860.19H567.67v-4.37h27.46Z"/><path class="cls-1" d="M635.5,889.85h-4.66V863.36l-11.61,26.49h-4.32l-11.52-26.49v26.49h-4.66v-34h6.38l12,27.7,12.1-27.7h6.29Z"/><path class="cls-1" d="M663.72,889.85H642.94v-34h4.7v29.62h16.08Z"/><path class="cls-1" d="M665.4,881.41l4.51-1.35a6.64,6.64,0,0,0,2.14,4.66,7,7,0,0,0,4.87,1.77,6.84,6.84,0,0,0,4.75-1.72,5.85,5.85,0,0,0,1.92-4.56,6,6,0,0,0-1.92-4.75,7,7,0,0,0-4.8-1.69,7.5,7.5,0,0,0-5.66,2.26c-.45-.16-1.18-.45-2.21-.86s-1.82-.74-2.4-1l4-15.46h16.42v4.32h-13.3l-2.3,8.93q2.07-2.31,6.34-2.31a10.6,10.6,0,0,1,7.6,2.79,9.85,9.85,0,0,1,3,7.53,10.07,10.07,0,0,1-3.17,7.56,11.39,11.39,0,0,1-8.26,3,11.94,11.94,0,0,1-8-2.69A9.33,9.33,0,0,1,665.4,881.41Z"/><path class="cls-1" d="M730.73,889.85H726V874.73H708.65v15.12H704v-34h4.7v14.55H726V855.82h4.7Z"/><path class="cls-1" d="M737.62,860.31a3.07,3.07,0,0,1-.94-2.28,3.15,3.15,0,0,1,.94-2.3,3.05,3.05,0,0,1,2.28-1,3.19,3.19,0,0,1,2.3.93,3.13,3.13,0,0,1,1,2.33,3.05,3.05,0,0,1-1,2.28,3.2,3.2,0,0,1-2.3.94A3.11,3.11,0,0,1,737.62,860.31Zm4.53,29.54h-4.46V866.77h4.46Z"/><path class="cls-1" d="M746.47,883.85l4.08-1.44a4.85,4.85,0,0,0,1.63,3.1,5.46,5.46,0,0,0,3.75,1.22,4.37,4.37,0,0,0,2.88-.88,2.77,2.77,0,0,0,1.05-2.19c0-1.53-1-2.53-3-3l-3.94-.87a7.55,7.55,0,0,1-4.22-2.3,6.05,6.05,0,0,1-1.54-4.18,6.65,6.65,0,0,1,2.43-5.13,8.38,8.38,0,0,1,5.78-2.16,11.27,11.27,0,0,1,3.94.64A6.89,6.89,0,0,1,762,868.4a9.65,9.65,0,0,1,1.44,2,8.21,8.21,0,0,1,.72,1.87l-4,1.49a5.07,5.07,0,0,0-.34-1.13,5.76,5.76,0,0,0-.74-1.22,3.55,3.55,0,0,0-1.46-1.09,5.81,5.81,0,0,0-2.26-.4,4.12,4.12,0,0,0-2.76.91,2.75,2.75,0,0,0-1.08,2.16c0,1.47.88,2.4,2.64,2.78l3.74.82a8.76,8.76,0,0,1,4.73,2.47,6.22,6.22,0,0,1,1.66,4.39,6.85,6.85,0,0,1-2.23,5,8.47,8.47,0,0,1-6.22,2.2,9.7,9.7,0,0,1-6.67-2.13A7.59,7.59,0,0,1,746.47,883.85Z"/><path class="cls-1" d="M775.18,859.47v7.3h5v4.08h-5v12a2.72,2.72,0,0,0,3.21,3.16,7.3,7.3,0,0,0,1.78-.19v3.84a8.9,8.9,0,0,1-3.07.43,6.36,6.36,0,0,1-4.71-1.72,6.58,6.58,0,0,1-1.73-4.85V870.85h-4.41v-4.08h1.25a3.39,3.39,0,0,0,2.66-1,3.68,3.68,0,0,0,.89-2.57v-3.74Z"/><path class="cls-1" d="M786.14,869.53a12.06,12.06,0,0,1,17,0,13.27,13.27,0,0,1,0,17.56,12.11,12.11,0,0,1-17,0,13.27,13.27,0,0,1,0-17.56Zm3.36,14.83a7.09,7.09,0,0,0,10.23,0,9.8,9.8,0,0,0,0-12.1,7.09,7.09,0,0,0-10.23,0,9.84,9.84,0,0,0,0,12.1Z"/><path class="cls-1" d="M823.8,866.53v4.8a13.37,13.37,0,0,0-2-.15q-6.33,0-6.33,7.11v11.56H811V866.77h4.42v4a7.16,7.16,0,0,1,6.91-4.42A7.31,7.31,0,0,1,823.8,866.53Z"/><path class="cls-1" d="M833.88,899.5h-4.94l5.76-12.19-9.94-20.54h5.18l7.2,15.93,6.91-15.93h4.85Z"/><path class="cls-1" d="M875.64,866.53v4.8a13.37,13.37,0,0,0-2-.15q-6.33,0-6.34,7.11v11.56h-4.51V866.77h4.42v4a7.16,7.16,0,0,1,6.91-4.42A7.31,7.31,0,0,1,875.64,866.53Z"/><path class="cls-1" d="M880.41,869.53a12.06,12.06,0,0,1,17,0,13.24,13.24,0,0,1,0,17.56,12.11,12.11,0,0,1-17,0,13.27,13.27,0,0,1,0-17.56Zm3.37,14.83a7.08,7.08,0,0,0,10.22,0,9.8,9.8,0,0,0,0-12.1,7.08,7.08,0,0,0-10.22,0,9.8,9.8,0,0,0,0,12.1Z"/><path class="cls-1" d="M920.23,887.07a6,6,0,0,1-2.78,2.62,9.31,9.31,0,0,1-4,.88,8,8,0,0,1-6.29-2.61,9.57,9.57,0,0,1-2.35-6.65V866.77h4.51v13.87a6.86,6.86,0,0,0,1.27,4.27,4.65,4.65,0,0,0,4,1.68A5.12,5.12,0,0,0,918.6,885a6.31,6.31,0,0,0,1.39-4.29V866.77h4.51v18.81a36,36,0,0,0,.24,4.27h-4.32A15.94,15.94,0,0,1,920.23,887.07Z"/><path class="cls-1" d="M937,859.47v7.3h5v4.08h-5v12a3.4,3.4,0,0,0,.74,2.4,3.36,3.36,0,0,0,2.48.76,7.22,7.22,0,0,0,1.77-.19v3.84a8.9,8.9,0,0,1-3.07.43,6.35,6.35,0,0,1-4.7-1.72,6.54,6.54,0,0,1-1.73-4.85V870.85H928.1v-4.08h1.25a3.39,3.39,0,0,0,2.66-1,3.64,3.64,0,0,0,.89-2.57v-3.74Z"/><path class="cls-1" d="M962.81,881.93l3.89,1.35a10.31,10.31,0,0,1-3.75,5.26,10.81,10.81,0,0,1-6.62,2,11.27,11.27,0,0,1-8.23-3.33,12.07,12.07,0,0,1-3.39-9A12.26,12.26,0,0,1,948,869.5a11.12,11.12,0,0,1,15.94-.17,12.79,12.79,0,0,1,2.93,8.81,8.23,8.23,0,0,1-.1,1.44H949.37a6.92,6.92,0,0,0,2,5,6.69,6.69,0,0,0,4.92,2A6.24,6.24,0,0,0,962.81,881.93Zm-13.3-6h12.62a6.09,6.09,0,0,0-1.72-4.24A6.17,6.17,0,0,0,955.8,870a6,6,0,0,0-4.42,1.75A6.3,6.3,0,0,0,949.51,875.93Z"/><path class="cls-1" d="M984.21,866.53v4.8a13.24,13.24,0,0,0-2-.15q-6.35,0-6.34,7.11v11.56H971.4V866.77h4.41v4a7.59,7.59,0,0,1,8.4-4.27Z"/><path class="cls-1" d="M998.54,860.31a3.1,3.1,0,0,1-.93-2.28,3.18,3.18,0,0,1,.93-2.3,3.08,3.08,0,0,1,2.28-1,3.2,3.2,0,0,1,2.31.93,3.13,3.13,0,0,1,1,2.33,3.05,3.05,0,0,1-1,2.28,3.21,3.21,0,0,1-2.31.94A3.14,3.14,0,0,1,998.54,860.31Zm4.54,29.54h-4.47V866.77h4.47Z"/><path class="cls-1" d="M1014,889.85h-4.46V866.77h4.32v3.07a7,7,0,0,1,3-2.79,8.93,8.93,0,0,1,4-1,7.9,7.9,0,0,1,4.12,1.11,6.69,6.69,0,0,1,2.79,3.26,8.17,8.17,0,0,1,7.73-4.37,7.85,7.85,0,0,1,5.64,2.26c1.55,1.51,2.32,3.68,2.32,6.53v15H1039V875.36a5.76,5.76,0,0,0-1.22-3.84,4.56,4.56,0,0,0-3.68-1.44,5,5,0,0,0-3.84,1.65,6,6,0,0,0-1.48,4.16v14h-4.52V875.36a5.71,5.71,0,0,0-1.22-3.84,4.56,4.56,0,0,0-3.67-1.44,5,5,0,0,0-3.89,1.63,6,6,0,0,0-1.49,4.22Z"/><path class="cls-1" d="M1054,899h-4.47v-32.2h4.37v3.6a7.69,7.69,0,0,1,3-3,9.28,9.28,0,0,1,4.7-1.15,9.55,9.55,0,0,1,7.8,3.41,14.62,14.62,0,0,1-.1,17.37,9.69,9.69,0,0,1-7.84,3.46,9.37,9.37,0,0,1-4.52-1.06,7.57,7.57,0,0,1-3-2.69Zm13.63-20.68a8.91,8.91,0,0,0-1.85-5.79,6.55,6.55,0,0,0-9.93,0,8.72,8.72,0,0,0-1.9,5.79,8.86,8.86,0,0,0,1.9,5.88,6.52,6.52,0,0,0,9.91,0A9,9,0,0,0,1067.59,878.29Z"/><path class="cls-1" d="M1081.27,889.85h-4.51V855.1h4.51Z"/><path class="cls-1" d="M1104,881.93l3.89,1.35a10.3,10.3,0,0,1-3.74,5.26,10.86,10.86,0,0,1-6.63,2,11.3,11.3,0,0,1-8.23-3.33,12.07,12.07,0,0,1-3.38-9,12.22,12.22,0,0,1,3.26-8.74,11.12,11.12,0,0,1,15.94-.17,12.78,12.78,0,0,1,2.92,8.81,9.5,9.5,0,0,1-.09,1.44h-17.38a6.92,6.92,0,0,0,2,5,6.7,6.7,0,0,0,4.92,2A6.23,6.23,0,0,0,1104,881.93Zm-13.29-6h12.62A5.83,5.83,0,0,0,1097,870a6,6,0,0,0-4.41,1.75A6.26,6.26,0,0,0,1090.68,875.93Z"/><path class="cls-1" d="M1117,889.85h-4.47V866.77h4.32v3.07a7,7,0,0,1,3-2.79,8.89,8.89,0,0,1,4-1,7.94,7.94,0,0,1,4.13,1.11,6.62,6.62,0,0,1,2.78,3.26,8.18,8.18,0,0,1,7.73-4.37,7.82,7.82,0,0,1,5.64,2.26,8.7,8.7,0,0,1,2.33,6.53v15H1142V875.36a5.71,5.71,0,0,0-1.23-3.84,4.54,4.54,0,0,0-3.67-1.44,4.93,4.93,0,0,0-3.84,1.65,6,6,0,0,0-1.49,4.16v14h-4.51V875.36a5.76,5.76,0,0,0-1.22-3.84,4.56,4.56,0,0,0-3.68-1.44,5,5,0,0,0-3.88,1.63,6,6,0,0,0-1.49,4.22Z"/><path class="cls-1" d="M1168.72,881.93l3.89,1.35a10.3,10.3,0,0,1-3.74,5.26,10.84,10.84,0,0,1-6.63,2,11.3,11.3,0,0,1-8.23-3.33,12.1,12.1,0,0,1-3.38-9,12.26,12.26,0,0,1,3.26-8.74,11.12,11.12,0,0,1,15.94-.17,12.79,12.79,0,0,1,2.93,8.81,9.34,9.34,0,0,1-.1,1.44h-17.38a7,7,0,0,0,2,5,6.7,6.7,0,0,0,4.92,2A6.23,6.23,0,0,0,1168.72,881.93Zm-13.29-6h12.62a5.83,5.83,0,0,0-6.33-5.9,6,6,0,0,0-4.42,1.75A6.26,6.26,0,0,0,1155.43,875.93Z"/><path class="cls-1" d="M1181.83,876.51v13.34h-4.51V866.77h4.41v3.31a7.66,7.66,0,0,1,7.11-4,7.55,7.55,0,0,1,6.12,2.55,9.88,9.88,0,0,1,2.13,6.57v14.64h-4.51V876q0-5.81-5.38-5.81a4.77,4.77,0,0,0-4,1.8A7.15,7.15,0,0,0,1181.83,876.51Z"/><path class="cls-1" d="M1209.14,859.47v7.3h5v4.08h-5v12a3.4,3.4,0,0,0,.74,2.4,3.36,3.36,0,0,0,2.48.76,7.22,7.22,0,0,0,1.77-.19v3.84a8.9,8.9,0,0,1-3.07.43,6.35,6.35,0,0,1-4.7-1.72,6.54,6.54,0,0,1-1.73-4.85V870.85h-4.42v-4.08h1.25a3.39,3.39,0,0,0,2.66-1,3.64,3.64,0,0,0,.89-2.57v-3.74Z"/><path class="cls-1" d="M1217.49,883.66a6.23,6.23,0,0,1,1.92-4.77,9,9,0,0,1,5.09-2.24l6.24-.91c1.18-.16,1.77-.73,1.77-1.73a3.87,3.87,0,0,0-1.24-3,5.36,5.36,0,0,0-3.75-1.15,5.06,5.06,0,0,0-3.64,1.27,5.29,5.29,0,0,0-1.59,3.38l-4.32-1a7.56,7.56,0,0,1,3-5.41,10.16,10.16,0,0,1,6.43-2.08c3.26,0,5.68.79,7.24,2.37a8.28,8.28,0,0,1,2.36,6.07v11.57a23.32,23.32,0,0,0,.28,3.79h-4.41a18.92,18.92,0,0,1-.24-3.12,8.42,8.42,0,0,1-7.44,3.84,7.83,7.83,0,0,1-5.57-2A6.5,6.5,0,0,1,1217.49,883.66Zm8.35,3.12a7,7,0,0,0,4.85-1.63c1.22-1.09,1.82-2.82,1.82-5.18v-1.06l-7,1.06a4.42,4.42,0,0,0-2.45,1.1,3.08,3.08,0,0,0-.91,2.35,3.16,3.16,0,0,0,1,2.35A3.68,3.68,0,0,0,1225.84,886.78Z"/><path class="cls-1" d="M1248.88,859.47v7.3h5v4.08h-5v12a2.74,2.74,0,0,0,3.22,3.16,7.36,7.36,0,0,0,1.78-.19v3.84a9,9,0,0,1-3.08.43,6.35,6.35,0,0,1-4.7-1.72,6.58,6.58,0,0,1-1.73-4.85V870.85H1240v-4.08h1.24a3.41,3.41,0,0,0,2.67-1,3.68,3.68,0,0,0,.88-2.57v-3.74Z"/><path class="cls-1" d="M1258.6,860.31a3.1,3.1,0,0,1-.93-2.28,3.18,3.18,0,0,1,.93-2.3,3.08,3.08,0,0,1,2.28-1,3.2,3.2,0,0,1,2.31.93,3.13,3.13,0,0,1,1,2.33,3.05,3.05,0,0,1-1,2.28,3.21,3.21,0,0,1-2.31.94A3.14,3.14,0,0,1,1258.6,860.31Zm4.54,29.54h-4.47V866.77h4.47Z"/><path class="cls-1" d="M1271,869.53a12.06,12.06,0,0,1,17,0,13.27,13.27,0,0,1,0,17.56,12.11,12.11,0,0,1-17,0,13.27,13.27,0,0,1,0-17.56Zm3.36,14.83a7.09,7.09,0,0,0,10.23,0,9.8,9.8,0,0,0,0-12.1,7.09,7.09,0,0,0-10.23,0,9.84,9.84,0,0,0,0,12.1Z"/><path class="cls-1" d="M1300.39,876.51v13.34h-4.52V866.77h4.42v3.31a7.65,7.65,0,0,1,7.1-4,7.52,7.52,0,0,1,6.12,2.55,9.84,9.84,0,0,1,2.14,6.57v14.64h-4.51V876q0-5.81-5.38-5.81a4.77,4.77,0,0,0-4,1.8A7.15,7.15,0,0,0,1300.39,876.51Z"/><path class="cls-1" d="M1344.07,870.85h-5.57v19h-4.66v-19h-4.27v-4.08h4.27v-3.89a7.75,7.75,0,0,1,2.16-5.81,7.44,7.44,0,0,1,5.43-2.11,4.9,4.9,0,0,1,2.68.48v4a5.44,5.44,0,0,0-2-.29,3.92,3.92,0,0,0-2.57.89,3.75,3.75,0,0,0-1.08,3v3.65h5.57Z"/><path class="cls-1" d="M1348.17,869.53a12,12,0,0,1,16.94,0,13.25,13.25,0,0,1,0,17.56,12.11,12.11,0,0,1-17,0,13.24,13.24,0,0,1,0-17.56Zm3.36,14.83a7.08,7.08,0,0,0,10.22,0,9.8,9.8,0,0,0,0-12.1,7.08,7.08,0,0,0-10.22,0,9.8,9.8,0,0,0,0,12.1Z"/><path class="cls-1" d="M1385.83,866.53v4.8a13.47,13.47,0,0,0-2-.15q-6.34,0-6.34,7.11v11.56H1373V866.77h4.41v4a7.18,7.18,0,0,1,6.92-4.42A7.38,7.38,0,0,1,1385.83,866.53Z"/><path class="cls-1" d="M1422.4,863.55l-4.22,1.49a7.16,7.16,0,0,0-2.16-4,6.88,6.88,0,0,0-5-1.8,7,7,0,0,0-4.71,1.63,5.13,5.13,0,0,0-1.87,4,4.66,4.66,0,0,0,1.13,3.17,5.82,5.82,0,0,0,3.24,1.78l5.09,1.1a11.91,11.91,0,0,1,6.52,3.44,8.69,8.69,0,0,1,2.31,6.11,9.28,9.28,0,0,1-3.27,7.11,12.11,12.11,0,0,1-8.49,3q-5.72,0-9-3a11.43,11.43,0,0,1-3.77-7.12l4.51-1.44a8.18,8.18,0,0,0,2.4,5.18,9.19,9.19,0,0,0,10.94.58,4.87,4.87,0,0,0,1.83-3.89,4.78,4.78,0,0,0-1.3-3.34,6.92,6.92,0,0,0-3.79-1.94l-4.85-1.06a11.3,11.3,0,0,1-6-3.21,8.56,8.56,0,0,1-2.25-6.1,9.36,9.36,0,0,1,3.29-7.08,11.27,11.27,0,0,1,7.94-3q5.23,0,8,2.55A11,11,0,0,1,1422.4,863.55Z"/><path class="cls-1" d="M1440.35,875.93h-7.68v13.92H1428v-34h12.38a10.37,10.37,0,0,1,7.59,2.88,10.34,10.34,0,0,1,0,14.4A10.46,10.46,0,0,1,1440.35,875.93Zm-7.68-4.22h6.82a7,7,0,0,0,4.8-1.56,5.32,5.32,0,0,0,1.77-4.2,5.54,5.54,0,0,0-1.77-4.3,6.91,6.91,0,0,0-4.8-1.6h-6.82Z"/><path class="cls-1" d="M1476.11,889.85l-3.69-9.5h-15.08l-3.6,9.5h-5l13.54-34h5.42l13.54,34Zm-11.28-29.13L1459,876h11.72Z"/><path class="cls-1" d="M1493.68,883.66a6.23,6.23,0,0,1,1.92-4.77,9,9,0,0,1,5.09-2.24l6.24-.91c1.18-.16,1.77-.73,1.77-1.73a3.87,3.87,0,0,0-1.24-3,5.36,5.36,0,0,0-3.75-1.15,5.1,5.1,0,0,0-3.65,1.27,5.33,5.33,0,0,0-1.58,3.38l-4.32-1a7.58,7.58,0,0,1,3-5.41,10.19,10.19,0,0,1,6.44-2.08q4.89,0,7.24,2.37a8.27,8.27,0,0,1,2.35,6.07v11.57a23.26,23.26,0,0,0,.29,3.79h-4.41a18.92,18.92,0,0,1-.24-3.12,8.42,8.42,0,0,1-7.44,3.84,7.81,7.81,0,0,1-5.57-2A6.5,6.5,0,0,1,1493.68,883.66Zm8.35,3.12a7,7,0,0,0,4.85-1.63q1.81-1.64,1.82-5.18v-1.06l-7,1.06a4.42,4.42,0,0,0-2.45,1.1,3.08,3.08,0,0,0-.91,2.35,3.16,3.16,0,0,0,1,2.35A3.68,3.68,0,0,0,1502,886.78Z"/><path class="cls-1" d="M1523.49,899H1519v-32.2h4.37v3.6a7.69,7.69,0,0,1,3-3,9.28,9.28,0,0,1,4.7-1.15,9.55,9.55,0,0,1,7.8,3.41,14.62,14.62,0,0,1-.1,17.37,9.69,9.69,0,0,1-7.85,3.46,9.33,9.33,0,0,1-4.51-1.06,7.57,7.57,0,0,1-3-2.69Zm13.63-20.68a8.91,8.91,0,0,0-1.85-5.79,6.06,6.06,0,0,0-5-2.28,6.16,6.16,0,0,0-5,2.28,8.77,8.77,0,0,0-1.89,5.79,8.91,8.91,0,0,0,1.89,5.88,6.16,6.16,0,0,0,5,2.28,6.09,6.09,0,0,0,5-2.28A9,9,0,0,0,1537.12,878.29Z"/><path class="cls-1" d="M1550.75,899h-4.46v-32.2h4.36v3.6a7.76,7.76,0,0,1,3-3,9.28,9.28,0,0,1,4.7-1.15,9.55,9.55,0,0,1,7.8,3.41,14.64,14.64,0,0,1-.09,17.37,9.72,9.72,0,0,1-7.85,3.46,9.3,9.3,0,0,1-4.51-1.06,7.53,7.53,0,0,1-3-2.69Zm13.63-20.68a8.86,8.86,0,0,0-1.85-5.79,6,6,0,0,0-5-2.28,6.15,6.15,0,0,0-5,2.28,8.72,8.72,0,0,0-1.9,5.79,8.86,8.86,0,0,0,1.9,5.88,6.52,6.52,0,0,0,9.91,0A9,9,0,0,0,1564.38,878.29Z"/><path class="cls-1" d="M1571.39,883.85l4.08-1.44a4.8,4.8,0,0,0,1.63,3.1,5.46,5.46,0,0,0,3.75,1.22,4.37,4.37,0,0,0,2.88-.88,2.77,2.77,0,0,0,1-2.19c0-1.53-1-2.53-3-3l-3.94-.87a7.55,7.55,0,0,1-4.22-2.3,6.05,6.05,0,0,1-1.54-4.18,6.67,6.67,0,0,1,2.42-5.13,8.42,8.42,0,0,1,5.79-2.16,11.17,11.17,0,0,1,3.93.64,6.86,6.86,0,0,1,2.69,1.71,9.65,9.65,0,0,1,1.44,2,8.21,8.21,0,0,1,.72,1.87l-4,1.49a5.07,5.07,0,0,0-.34-1.13,6.21,6.21,0,0,0-.74-1.22,3.59,3.59,0,0,0-1.47-1.09,5.76,5.76,0,0,0-2.25-.4,4.12,4.12,0,0,0-2.76.91,2.75,2.75,0,0,0-1.08,2.16c0,1.47.88,2.4,2.64,2.78l3.74.82a8.76,8.76,0,0,1,4.73,2.47,6.26,6.26,0,0,1,1.66,4.39,6.82,6.82,0,0,1-2.24,5,8.44,8.44,0,0,1-6.21,2.2,9.7,9.7,0,0,1-6.67-2.13A7.55,7.55,0,0,1,1571.39,883.85Z"/><path class="cls-1" d="M1594.53,889.13a3.15,3.15,0,0,1-1-2.35,3.23,3.23,0,0,1,1-2.37,3.14,3.14,0,0,1,2.35-1,3.38,3.38,0,0,1,3.36,3.36,3.14,3.14,0,0,1-1,2.35,3.23,3.23,0,0,1-2.37,1A3.15,3.15,0,0,1,1594.53,889.13Z"/><path class="cls-1" d="M888.21,645.38v10.2a14,14,0,0,0-3.26-.34,7.63,7.63,0,0,0-5.68,2.24c-1.48,1.5-2.21,3.81-2.21,6.94v14.75H866.72V645.38h10v4.55a7.47,7.47,0,0,1,3.74-3.73,11.79,11.79,0,0,1,5-1.16A9.58,9.58,0,0,1,888.21,645.38Z"/><path class="cls-1" d="M907.86,644.36a17.6,17.6,0,0,1,12.82,5,18.71,18.71,0,0,1,0,25.74,18.67,18.67,0,0,1-25.6,0,18.52,18.52,0,0,1,0-25.67A17.57,17.57,0,0,1,907.86,644.36Zm0,26.31a7.43,7.43,0,0,0,5.41-2.17,8.41,8.41,0,0,0,2.21-6.26,8.28,8.28,0,0,0-2.21-6.22,7.82,7.82,0,0,0-10.78,0,9.71,9.71,0,0,0,0,12.41A7.37,7.37,0,0,0,907.86,670.67Z"/><path class="cls-1" d="M952.54,679.17a16.47,16.47,0,0,1-.27-3.39,7.71,7.71,0,0,1-3.74,3.09,13.67,13.67,0,0,1-5.31,1q-6,0-9.42-3.77a13.48,13.48,0,0,1-3.43-9.42V645.38h10.34v19.17a6.26,6.26,0,0,0,1.39,4.22,5,5,0,0,0,4,1.63,5.41,5.41,0,0,0,4.11-1.6,5.77,5.77,0,0,0,1.53-4.18V645.38h10.34v27.74a48.38,48.38,0,0,0,.34,6Z"/><path class="cls-1" d="M981.91,635.52v9.86h6.6v9h-6.6v12.65q0,3.54,3.74,3.54a12.7,12.7,0,0,0,2.72-.34v8.56a12.17,12.17,0,0,1-5.37,1,11.39,11.39,0,0,1-8.26-2.93,10.53,10.53,0,0,1-3-8V654.42h-6v-9h1.7a4.89,4.89,0,0,0,3.91-1.53,5.89,5.89,0,0,0,1.33-4v-4.35Z"/><path class="cls-1" d="M1015.85,667l8.63,2.45a14,14,0,0,1-5.37,7.72,16.63,16.63,0,0,1-10.2,3,17.42,17.42,0,0,1-12.48-4.89q-5.13-4.89-5.13-13.13a17.31,17.31,0,0,1,5-12.85,16.24,16.24,0,0,1,11.86-5q7.89,0,12.41,4.59t4.52,12.75a13.92,13.92,0,0,1-.2,3.19h-23.53a6.26,6.26,0,0,0,2.38,4.66,8,8,0,0,0,5.31,1.87C1012.54,671.42,1014.8,670,1015.85,667Zm-14.28-8.77h13.53a6.07,6.07,0,0,0-1.8-4,6.74,6.74,0,0,0-5-1.7,6.42,6.42,0,0,0-4.76,1.77A6.29,6.29,0,0,0,1001.57,658.23Z"/><path class="cls-1" d="M1051.54,645.38v10.2a14,14,0,0,0-3.26-.34,7.66,7.66,0,0,0-5.68,2.24q-2.2,2.25-2.21,6.94v14.75h-10.33V645.38h10v4.55a7.54,7.54,0,0,1,3.74-3.73,11.86,11.86,0,0,1,5-1.16A9.51,9.51,0,0,1,1051.54,645.38Z"/><path class="cls-2" d="M831.84,763.56H809.79V728.82h22v7.3H817.53v6.62h12.93v6.81H817.53v6.66h14.31Z"/><path class="cls-2" d="M844.09,763.56h-7.45V728.09h7.45Z"/><path class="cls-2" d="M865.35,754.79l6.23,1.77a10.18,10.18,0,0,1-3.88,5.56,12,12,0,0,1-7.35,2.18,13.2,13.2,0,0,1-9.09-22.25,11.76,11.76,0,0,1,8.55-3.57q5.69,0,9,3.3T872,751a10,10,0,0,1-.15,2.3h-17a4.48,4.48,0,0,0,1.71,3.36,5.77,5.77,0,0,0,3.82,1.35Q864.23,758,865.35,754.79Zm-10.29-6.32h9.75a4.37,4.37,0,0,0-1.3-2.89,4.81,4.81,0,0,0-3.6-1.22,4.65,4.65,0,0,0-4.85,4.11Z"/><path class="cls-2" d="M883,763.56h-7.45V739.21h7.11V742a6.39,6.39,0,0,1,2.91-2.54,9.28,9.28,0,0,1,4.1-1q5.24,0,7.2,3.82a8.62,8.62,0,0,1,7.54-3.82,9.26,9.26,0,0,1,6.42,2.32c1.73,1.56,2.6,3.88,2.6,7v15.77h-7.2V749.45a4.4,4.4,0,0,0-1-3,3.59,3.59,0,0,0-2.89-1.15,3.74,3.74,0,0,0-3,1.22,4.31,4.31,0,0,0-1.08,2.94v14.06H891V749.45a4.32,4.32,0,0,0-1-3,3.65,3.65,0,0,0-2.91-1.15,3.7,3.7,0,0,0-2.94,1.22,4.36,4.36,0,0,0-1.08,3Z"/><path class="cls-2" d="M934.44,754.79l6.22,1.77a10.12,10.12,0,0,1-3.87,5.56,12,12,0,0,1-7.35,2.18,12.57,12.57,0,0,1-9-3.53,13.83,13.83,0,0,1-.1-18.72,11.73,11.73,0,0,1,8.55-3.57q5.69,0,9,3.3t3.26,9.19a10,10,0,0,1-.15,2.3H924a4.52,4.52,0,0,0,1.72,3.36,5.77,5.77,0,0,0,3.82,1.35Q933.32,758,934.44,754.79Zm-10.29-6.32h9.75a4.37,4.37,0,0,0-1.3-2.89,4.81,4.81,0,0,0-3.6-1.22,4.65,4.65,0,0,0-4.85,4.11Z"/><path class="cls-2" d="M952.13,749.6v14h-7.45V739.21h7.2V742a6.26,6.26,0,0,1,2.87-2.52,9.3,9.3,0,0,1,4-.91,8.1,8.1,0,0,1,6.61,2.72,10.61,10.61,0,0,1,2.25,7v15.28h-7.44v-14a4.48,4.48,0,0,0-1-3.06,3.71,3.71,0,0,0-3-1.15,3.79,3.79,0,0,0-2.92,1.2A4.37,4.37,0,0,0,952.13,749.6Z"/><path class="cls-2" d="M981.53,732.11v7.1h4.75v6.52h-4.75v9.11c0,1.7.9,2.55,2.69,2.55a8.55,8.55,0,0,0,2-.25v6.18a8.77,8.77,0,0,1-3.87.68,8.22,8.22,0,0,1-5.95-2.1,7.6,7.6,0,0,1-2.18-5.74V745.73h-4.31v-6.52h1.22a3.55,3.55,0,0,0,2.82-1.1,4.22,4.22,0,0,0,1-2.87v-3.13Z"/><path class="cls-2" d="M1006.27,763.56a11.92,11.92,0,0,1-.19-2.45,5.48,5.48,0,0,1-2.7,2.23,9.72,9.72,0,0,1-3.82.76,8.69,8.69,0,0,1-6.79-2.72,9.68,9.68,0,0,1-2.47-6.78V739.21h7.45V753a4.53,4.53,0,0,0,1,3,3.63,3.63,0,0,0,2.92,1.17,3.89,3.89,0,0,0,3-1.15,4.15,4.15,0,0,0,1.1-3V739.21h7.45v20a34,34,0,0,0,.25,4.36Z"/><path class="cls-2" d="M1026,763.56h-7.45V739.21h7.11V742a6.34,6.34,0,0,1,2.91-2.54,9.27,9.27,0,0,1,4.09-1q5.25,0,7.21,3.82a8.62,8.62,0,0,1,7.54-3.82,9.26,9.26,0,0,1,6.42,2.32c1.73,1.56,2.6,3.88,2.6,7v15.77h-7.2V749.45a4.36,4.36,0,0,0-1-3,3.56,3.56,0,0,0-2.89-1.15,3.73,3.73,0,0,0-3,1.22,4.31,4.31,0,0,0-1.08,2.94v14.06h-7.35V749.45a4.32,4.32,0,0,0-1-3,3.65,3.65,0,0,0-2.91-1.15,3.7,3.7,0,0,0-2.94,1.22,4.36,4.36,0,0,0-1.08,3Z"/><path class="cls-2" d="M1062.62,762.51a4.9,4.9,0,0,1-1.47-3.55,5,5,0,0,1,5-5,4.88,4.88,0,0,1,3.55,1.47,4.77,4.77,0,0,1,1.5,3.53,4.88,4.88,0,0,1-1.5,3.53,4.93,4.93,0,0,1-7.08,0Z"/><path class="cls-2" d="M1076.24,764.54V739.21h7.45v26.12a8.33,8.33,0,0,1-2.18,6,7.7,7.7,0,0,1-5.85,2.28,10.57,10.57,0,0,1-4.12-.69v-6.17a8.18,8.18,0,0,0,2.2.29A2.21,2.21,0,0,0,1076.24,764.54Zm.64-29.69a4.38,4.38,0,0,1,0-6.17,4.15,4.15,0,0,1,3-1.28,4.24,4.24,0,0,1,3.13,1.28,4.33,4.33,0,0,1,0,6.17,4.28,4.28,0,0,1-3.11,1.27A4.14,4.14,0,0,1,1076.88,734.85Z"/><path class="cls-2" d="M1087,756.65l6.32-1.12a3.58,3.58,0,0,0,1.06,2.33,3.78,3.78,0,0,0,2.77.95,3.19,3.19,0,0,0,2.1-.61,1.89,1.89,0,0,0,.74-1.5q0-1.47-2.4-2l-2.8-.63a9.79,9.79,0,0,1-5.48-2.77,6.86,6.86,0,0,1-1.77-4.73,7.36,7.36,0,0,1,2.67-5.73,9.74,9.74,0,0,1,6.69-2.35c3.17,0,5.55.75,7.13,2.27a7.85,7.85,0,0,1,2.62,5l-6.17,1.12a3.43,3.43,0,0,0-1-2.15,3.37,3.37,0,0,0-2.47-.83,3,3,0,0,0-1.86.58,1.82,1.82,0,0,0-.79,1.52c0,1,.64,1.59,1.92,1.82l3.23.63a10.12,10.12,0,0,1,5.59,2.79,7,7,0,0,1,1.91,4.86,7.72,7.72,0,0,1-2.55,5.8,10,10,0,0,1-7.16,2.43,13.29,13.29,0,0,1-4.77-.79,7.88,7.88,0,0,1-3.19-2,10.29,10.29,0,0,1-1.66-2.47A7.16,7.16,0,0,1,1087,756.65Z"/></g><g id="Logo"><rect class="cls-3" x="792.46" y="236.32" width="160.72" height="173.64" rx="22.88"/><g class="cls-4"><polyline class="cls-5" points="988.52 236.42 973.52 236.42 973.52 251.42"/><line class="cls-6" x1="973.52" y1="284.49" x2="973.52" y2="400.23"/><polyline class="cls-5" points="973.52 416.77 973.52 431.77 958.52 431.77"/><line class="cls-7" x1="928.32" y1="431.77" x2="822.63" y2="431.77"/><polyline class="cls-5" points="807.53 431.77 792.53 431.77 792.53 446.77"/><line class="cls-8" x1="792.54" y1="480.18" x2="792.54" y2="530.29"/><polyline class="cls-5" points="792.53 547 792.53 562 807.53 562"/><line class="cls-9" x1="840.69" y1="562" x2="1089.33" y2="562"/><polyline class="cls-5" points="1105.91 562 1120.91 562 1120.91 547"/><line class="cls-10" x1="1120.91" y1="514.16" x2="1120.91" y2="267.84"/><polyline class="cls-5" points="1120.91 251.42 1120.91 236.42 1105.91 236.42"/><line class="cls-11" x1="1082.43" y1="236.42" x2="1000.26" y2="236.42"/></g><rect class="cls-12" x="792.46" y="154.58" width="328.17" height="62.84" rx="22.88"/><path d="M813.64,182.64v-3.19h5.28l1.28-5.9h3.49l-1.29,5.9h5l1.28-5.9h3.52l-1.28,5.9h4.76v3.19h-5.46L829,188.1h4.84v3.19h-5.5l-1.28,6h-3.52l1.28-6h-5l-1.28,6h-3.48l1.28-6h-4.54V188.1h5.2l1.17-5.46Zm8.07,0-1.18,5.46h5l1.17-5.46Z"/><path d="M854,171.13l-12.8,26.36h-3.92l12.8-26.36Z"/><path d="M861,186.82V197.3h-4.25V170.76H861v10.42a6.9,6.9,0,0,1,9.93-.26,7.55,7.55,0,0,1,1.69,5.09V197.3h-4.25V186.75a4.46,4.46,0,0,0-.88-2.88,3.4,3.4,0,0,0-2.79-1.08,3.35,3.35,0,0,0-2.66,1.13A4.68,4.68,0,0,0,861,186.82Z"/><path d="M885.67,178.9a8.91,8.91,0,0,1,6.66,2.68,10.11,10.11,0,0,1,0,13.58,9.53,9.53,0,0,1-13.27,0,10.08,10.08,0,0,1,0-13.58A8.83,8.83,0,0,1,885.67,178.9Zm-3.54,13.62a4.9,4.9,0,0,0,7.08,0,5.8,5.8,0,0,0,1.45-4.18,5.67,5.67,0,0,0-1.45-4.12,5,5,0,0,0-7.08,0,5.66,5.66,0,0,0-1.44,4.12A5.8,5.8,0,0,0,882.13,192.52Z"/><path d="M903.27,197.3h-4.22V179.45h4.07v2.27a5,5,0,0,1,2.22-2.05,6.82,6.82,0,0,1,3.06-.73,6.46,6.46,0,0,1,3.23.81,4.93,4.93,0,0,1,2.12,2.34A6.81,6.81,0,0,1,924,180.66a6.63,6.63,0,0,1,1.83,5.06V197.3h-4.11V186.42a4,4,0,0,0-.86-2.66,3.2,3.2,0,0,0-2.58-1,3.43,3.43,0,0,0-2.68,1.14,4.08,4.08,0,0,0-1,2.82V197.3h-4.17V186.42a3.93,3.93,0,0,0-.87-2.66,3.2,3.2,0,0,0-2.58-1,3.43,3.43,0,0,0-2.69,1.12,4,4,0,0,0-1,2.84Z"/><path d="M943.26,191.07l3.59,1.14a7.9,7.9,0,0,1-2.88,4,8.34,8.34,0,0,1-5.18,1.59,8.88,8.88,0,0,1-6.47-2.6,10.28,10.28,0,0,1-.08-13.71,8.89,8.89,0,0,1,12.52-.13,9.62,9.62,0,0,1,2.31,6.77,4.24,4.24,0,0,1-.11,1.35H933.91a4.63,4.63,0,0,0,1.49,3.34,4.78,4.78,0,0,0,3.39,1.32A4.26,4.26,0,0,0,943.26,191.07ZM934,186.42h8.76a4.13,4.13,0,0,0-1.19-2.83,4.31,4.31,0,0,0-3.21-1.13,4.12,4.12,0,0,0-3.07,1.19A4.27,4.27,0,0,0,934,186.42Z"/></g></svg>